<?xml version="1.0" encoding="UTF-8"?>
<svg xmlns="http://www.w3.org/2000/svg" xml:space="preserve" width="66.1458mm" height="66.1458mm" version="1.1" style="shape-rendering:geometricPrecision; text-rendering:geometricPrecision; image-rendering:optimizeQuality; fill-rule:evenodd; clip-rule:evenodd"
viewBox="0 0 6614.58 6614.58"
 xmlns:xlink="http://www.w3.org/1999/xlink"
 xmlns:xodm="http://www.corel.com/coreldraw/odm/2003">
 <g>
  <path style="fill:none; stroke:currentColor; stroke-width:450; stroke-linecap:square; stroke-miterlimit:22.9256" d="M3445.45 988.66c-192.47,20.2 -163.24,14.59 -355.52,57.45 -190.75,42.53 -256.85,50.05 -447.23,130.58 -202.95,85.84 -432.12,238.43 -576.64,403.33 -151.47,172.83 -236.87,340.34 -314.74,550.22 -62.18,167.62 -113.79,346.57 -125.29,525.79l-18.42 254.12c-5.25,178.63 -4.31,623.11 11.45,830.31 21.46,281.93 46.61,423.86 116.82,694.85 48.09,185.61 85.23,310.24 189.05,481.35 94.29,155.41 208.2,306.74 385.28,368.93 143.15,50.27 179.9,56.19 323.09,51.17 169.37,-5.93 326.11,-101.97 441.45,-221.89 109.92,-114.3 196.61,-259.72 252.16,-408.49l47.92 -86.2c199.52,-408.13 297.41,-750.73 788.17,-934.9 384.74,-144.38 768.4,-182.65 1068.99,-502.73 113.83,-121.21 201.16,-258.54 255.95,-415.17 51.77,-148.02 75.32,-220.16 83.44,-373.8 16.12,-305.01 -56.21,-593.37 -256.82,-829.81 -297.62,-350.77 -750.33,-528.8 -1200.67,-559.88 -352.99,-24.36 -258.8,-30.6 -668.44,-15.23z"/>
 </g>
</svg>
