<?xml version="1.0" encoding="UTF-8"?>
<!DOCTYPE svg PUBLIC "-//W3C//DTD SVG 1.1//EN" "http://www.w3.org/Graphics/SVG/1.1/DTD/svg11.dtd">
<!-- Creator: CorelDRAW -->
<svg xmlns="http://www.w3.org/2000/svg" xml:space="preserve" width="142.875mm" height="214.312mm" version="1.1" style="shape-rendering:geometricPrecision; text-rendering:geometricPrecision; image-rendering:optimizeQuality; fill-rule:evenodd; clip-rule:evenodd"
viewBox="0 0 14287.5 21431.24"
 xmlns:xlink="http://www.w3.org/1999/xlink"
 xmlns:xodm="http://www.corel.com/coreldraw/odm/2003">
 <defs>
  <style type="text/css">
   <![CDATA[
    .fil5 {fill:#E9C736}
    .fil6 {fill:#E9D06C}
    .fil4 {fill:#EECF50}
    .fil2 {fill:#F9C727}
    .fil0 {fill:#FABE11}
    .fil3 {fill:#FDE45B}
    .fil1 {fill:#FEE69E}
    .fil7 {fill:#FABE11;fill-rule:nonzero}
   ]]>
  </style>
 </defs>
 <g id="Слой_x0020_1">
  <metadata id="CorelCorpID_0Corel-Layer"/>
  <g id="_2657089966976">
   <path class="fil0" d="M4859.68 18105.73c56.46,-89.8 40.03,-308.25 283.9,-378.73 39.15,-11.32 79.42,-16.58 119.97,-15.09 84.75,3.1 140.18,44.49 235.26,58.34 11.78,-35.88 5.49,-477.03 362.09,-483.2 222.72,-3.86 510.56,227.01 541.21,289.95 -97.31,-338.04 171.83,-511.49 410.04,-315.52 -7.15,-222.78 47.43,-707.88 156.77,-906.39 56.59,-102.75 96.11,-141.57 136.59,-226.2 96.93,81.23 199.26,393.88 232.66,516.08 57.95,212.05 53.82,467.78 63.22,689.71 83.21,-34.91 44.41,-76.03 152.49,-100.1 277.64,-61.83 280.07,395.55 309.73,446.21 168.7,3.74 279.95,-67.33 427.43,55.05 105.02,87.13 135.23,194.09 159.36,334.01 248.11,-278.66 964.75,-337.36 932.82,201.02 -13.87,233.82 -122.81,156.24 -451.34,321.36 -170.04,85.47 -396.22,153.01 -562.39,227.65 -389.87,175.11 -673.3,311.51 -1045.7,510.36 -83.08,44.36 -161.66,122.88 -270.17,72.51 -98.96,-45.95 -173.2,-100.37 -259.23,-149.17l-373.3 -198.29c-141.97,-87.73 -1051.08,-467.51 -1228.78,-540.89 -113.78,-46.98 -1039.2,-348.81 -1111.01,-463.77 -356.82,-571.17 25.37,-938.05 414.3,-868.93 141.29,25.11 272.07,120.12 321.26,260.19 32.41,92.28 21.1,82.71 -25.78,140.55 -139.33,171.87 -136.92,441.13 68.6,523.29zm4656.03 -602.27c4.73,-108.25 38.22,-129.83 120.36,-167.97 233.75,-108.55 484.58,10.03 602.5,202.22 118.08,192.44 13.59,505.77 -165.29,599.18 -61.1,31.91 -147.78,67.07 -208.65,84.51 2.71,-92.16 230.92,-410.81 -113.07,-623.51 -87.3,-53.98 -111.11,-34.37 -203.04,-76.63l-32.81 -17.8zm-8889.79 -13697.12c1691.66,-808.18 4273.8,-1448.64 6598.56,-1399.09 2141.59,45.65 4293.81,405.76 6217.18,1294.73 177.95,82.24 222.3,30.58 221.03,250.21 -7.65,1331.31 12.27,2673.5 12.86,4006.85 0.6,1327.97 -0.8,2655.97 0.15,3983.95 0.48,656.59 21.28,1350.4 -1.66,2002.55 -62.63,1781.17 -810.54,2839.58 -2359.1,3617.45 -91.73,-148.49 -37.69,-203.21 -210.67,-319.02 -115.48,-77.32 -293.2,-96.38 -400.79,-2.92 247.05,-790.2 -749.2,-982.11 -1081.82,-599.83 -168.21,193.33 -127.85,290.89 -101.57,557.66 -270.93,-12.34 -311.85,71.65 -469.33,166.84 -48.39,-155.66 -35.15,-183.77 -142.41,-288.83 -91.82,-89.94 -163.6,-117.47 -341.3,-94.73 56.64,-289.42 76.33,-506.53 -13.03,-784.83 -33.82,-105.33 -181.19,-521.91 -265.03,-612.82 -69.67,391.47 -195.55,770.85 -344.67,1128.42 -42.32,101.47 -104.89,231 -136.94,335.76 -49.31,-691.27 -191.61,-964.73 -446.59,-1466.61 -184.46,40.88 -282.31,0.51 -431.97,8.37 -196.37,376.32 -314.98,562.6 -391.3,1015.06l-58.7 393.59c-178.53,-323.79 -424.93,-1027.25 -466.89,-1413.15l-88.4 127.23c-227.08,454.86 -296.13,683.72 -195.95,1165.62 -158.11,-17.51 -225.46,-30.96 -345.87,59.6 -118.22,88.93 -90.5,142.7 -159.86,263.25 -168.33,-91.98 -232.23,-118.28 -474.33,-107.77 83.05,-278.21 34.97,-449.12 -127.19,-629.03 -120.6,-133.78 -320.71,-247.1 -572.51,-255.7 -541.44,-18.5 -846.01,508.52 -599.35,886.13 -150.65,16.6 -246.78,61.28 -322.61,145.1 -104.17,115.13 -77.44,223.75 -142.97,320.35 -235.33,-180.99 -661.54,-309.68 -1210.92,-803.66 -310.75,-279.42 -642.91,-713.58 -822.4,-1200.44 -447.96,-1215.12 -323.29,-2397.58 -325.39,-3698.87 -2.18,-1342.16 1.61,-2684.38 -0.13,-4026.54 -1.7,-1325.41 -36.53,-2705.95 1.87,-4024.88zm-431.35 -279.14c32.81,952.97 3.62,1960.23 3.63,2919.22 0,972.77 -2.87,1945.97 -0.86,2918.72 2.01,972.89 -1.78,1945.86 0.91,2918.72 4.59,1658.29 -129.86,2921.6 833.23,4274.74 616.96,866.83 2122.68,1557.81 3132.49,1982.85 833.67,350.89 1745.38,675.43 2524.67,1118.06 144.29,81.96 320.1,215.57 450.62,276.68 136.45,-57.77 309.52,-197.06 467.72,-281.12 541.48,-287.72 892.14,-460.64 1485.14,-687.31 1145.97,-438.06 3047.33,-1199.79 3832.07,-2007.34 1314.48,-1352.68 1178.78,-2785.25 1171.98,-4676.56l-0.86 -5837.44c-0.18,-960.84 28.15,-1963.5 -1.56,-2918.72l-1489.15 -652.07c-2786.82,-1041.36 -6348.22,-1135.14 -9281.44,-460.32 -896.58,206.26 -2378.3,671.22 -3128.59,1111.89z"/>
   <path class="fil0" d="M2267.47 15799.5l-1.19 -1056.89 887.43 2.86 -886.24 1054.03zm-2.39 -2057.39c27.75,45.13 840.31,763.91 922.74,807.69l-916.64 2.96 -6.1 -810.65zm853.61 -904.34l106.72 1480.3 -853.48 -734.3 558.62 -587.13c75.94,-77.13 146.8,-171.45 188.14,-158.87zm-850.16 567.15l-2.74 -1523.57 734.93 749.93c-126.72,116.99 -240.35,243.65 -370.87,383.17 -121.04,129.4 -227.1,237.7 -361.32,390.47zm83.49 -1738.9c27.26,-40.34 600.64,-645.24 626.6,-660.5l92.15 1417.92c-82.07,-74.19 -121.74,-125.76 -182.21,-192.79l-351.28 -372.73c-64.68,-65.04 -131.98,-123.08 -185.26,-191.9zm-83.86 -214.84l-1.38 -1142.15c65.95,69.3 208.65,177.3 294.63,247.13 110.43,89.7 208.06,184 310.12,260.76 -178.56,211.08 -415.43,430.08 -603.37,634.26zm75.85 -1333.19c73.21,-133.64 171.09,-264.05 253.63,-395.06 64.2,-101.88 185.82,-315.62 252.68,-382.12l92.29 1274.38 -598.6 -497.2zm-74.01 -185.33l-5.83 -847.77 542.83 0.45c-157.43,283.08 -363.65,555.71 -537,847.32zm-5.55 -2251.99c74.1,189.91 168.69,413.6 249.83,598.72l248.33 607.55 -490.63 -2.63 -7.53 -1203.64zm-221.21 9017.48c89.27,41.43 138.13,103.83 214.53,142.3 23.64,-224.54 -22.09,-540.68 8.16,-741.54 11.86,-78.76 262.08,-340.76 325.86,-415.3 232.96,-272.28 452.27,-537.64 685.6,-815.92l113.21 1336.91 192.29 -107.47c-22.16,-430.78 -64.24,-926.51 -112.09,-1359.22 -49.21,-444.94 -58.8,-913.94 -104.43,-1367.77l-349.22 -4418.44c-18.66,-85.95 -64.9,-174.06 -101.14,-260.48 -68.57,-163.55 -413.37,-940.4 -431.76,-1038.15 -54.72,-290.89 59.12,-1720.81 -1.15,-2180.33 244.77,249.5 501.65,639.06 655.85,1008.75 138.4,331.81 502.68,2264.76 619.33,2789.65l318.02 1391.12c-591.59,288.14 -873.68,1141.84 -386.76,1832.93 557.07,790.68 1357.01,622.42 2069.08,653.17l42.78 -440.77c-765.63,-15.53 -1357.87,47.38 -1725.16,-450.04 -153.38,-207.72 -251.88,-554.11 -115.27,-852.36 115.15,-251.38 339.96,-381.28 648.09,-457.18l-407.07 -1859.99c-142.46,-639 -255,-1259.05 -387.98,-1892.24 -237.37,-1130.27 -402.58,-1439.26 -1138.86,-2250.28 -158.3,-174.38 -397.7,-386.8 -622.68,-517.63 -66.48,311.37 -8.95,1116.09 -8.72,1485.94l-6.88 7690.93c0.28,595.94 -29.28,2680.34 6.37,3093.41z"/>
   <path class="fil0" d="M11124.02 14740.01l910 -1.25 -0.39 1054.21c-194.41,-269.84 -717.19,-796.19 -909.61,-1052.96zm454.14 -843.76l-10.73 48.53c-7.89,41.69 -6.11,29.55 -13.99,79.46l155.68 -20.27c61.15,-13.3 112.3,-73.03 163.78,-118.06 68.21,-59.65 127.04,-89.57 156.03,-158.68 70.62,29.68 29.6,-25.55 53.8,88.88l-0.93 321.24c-0.01,156.17 -1.93,312.61 0,468.59l-919.41 1.2c-156.03,-20.71 -66.06,8.29 -95.35,-49.69 -19.74,-52.6 62.49,-61.06 78.6,-123.68 1.55,-6.02 1.05,-13.1 1.83,-18.97l-3.07 -42.99c-2.35,-1.03 -5.43,-6.91 -6.08,-4.71 -0.73,2.43 -6,-4.2 -7.1,-4.78l-99.41 -33.34c0.88,-25.2 9.64,-330.22 26.95,-277.56 2.38,7.24 16.36,-3.37 18.94,-2.29 3.31,1.39 9.43,14.93 17.2,17.43l82.99 -1243.16 738.55 738.73c-34.03,71.97 -117.46,120.54 -175.68,170.13 -33.36,28.42 -49.68,43.23 -91.61,78.98l-70.99 85.01zm-301.89 -1268.78l758.35 -744.02 -0.53 1524.15 -757.82 -780.13zm-42.43 -220.58l94.37 -1400.4c58.78,39.36 481.55,540 627.34,635.18l-721.71 765.22zm193.55 -1598.11c103.62,-72.95 203.76,-162.98 311.22,-252.39l295.02 -246.71 -2.03 1135.38 -604.21 -636.28zm39.27 -1461.83l486.41 787.74c-78.02,40.47 -212.88,173.51 -301.77,247.14 -62.89,52.09 -230.15,212.64 -282.66,234.61l98.02 -1269.49zm571 589.13c-65.75,-97.61 -535.8,-830.7 -543.17,-857.29l539.69 -1.13 3.48 858.42zm-119.09 -1971.1c29.69,-71.02 97.91,-241.94 128.17,-291.74l-10.29 1212.96 -504.74 -9.23 386.86 -911.99zm-2227.79 2982.71c600.15,160.75 953.53,712.86 532.11,1309.71 -127.44,180.49 -379,351.37 -670.01,413.25 -324.55,69.02 -722.27,29.92 -1074.81,36.63l67.29 438.53c854.07,22.74 1511.33,68.26 2064.85,-650.74 316.22,-410.75 351.34,-1077.89 -18.23,-1533.75 -140.11,-172.83 -239.68,-213.85 -363.66,-317.91l318.35 -1366.58c96.2,-464.62 198.5,-934.47 297.5,-1406.95 157.4,-751.21 191.74,-1311.67 609.76,-1924.85l361.92 -470.21c6.68,156.62 23.92,2107.46 -5.6,2215.14l-450.55 1061.3c-114.46,266.38 -201.64,1739.68 -218.63,2062.34 -24.34,462.12 -73.04,940.58 -110.86,1405.2 -36.83,452.38 -65.25,943.5 -113.65,1392.1 -27.75,257.19 -232.5,2751.03 -209.41,2793.77 49.52,48.81 121.28,108.07 181.22,140.26l132.02 -1676.2 847.8 1017.33c294.53,298.62 142.81,255.43 169.52,982.18 74.47,-20.38 184.54,-103.52 237.06,-153.04l2.35 -3067.85c0.07,-1029.68 1.44,-2059.5 -0.12,-3089.16l-22.3 -4580.47c-0.04,-511.17 39.93,-1028.49 19.87,-1535.83 -319.67,93.53 -938.25,836.75 -1145.8,1116.12 -418.67,563.57 -505.54,917.26 -643,1638.51 -166.12,871.64 -371.84,1953.52 -581.46,2805.35l-213.53 945.82z"/>
   <path class="fil1" d="M4859.68 18105.73c-205.52,-82.16 -207.93,-351.42 -68.6,-523.29 46.88,-57.84 58.19,-48.27 25.78,-140.55 -49.19,-140.07 -179.97,-235.08 -321.26,-260.19 -388.93,-69.12 -771.12,297.76 -414.3,868.93 71.81,114.96 997.23,416.79 1111.01,463.77 177.7,73.38 1086.81,453.16 1228.78,540.89l373.3 198.29c86.03,48.8 160.27,103.22 259.23,149.17 108.51,50.37 187.09,-28.15 270.17,-72.51 372.4,-198.85 655.83,-335.25 1045.7,-510.36 166.17,-74.64 392.35,-142.18 562.39,-227.65 328.53,-165.12 437.47,-87.54 451.34,-321.36 31.93,-538.38 -684.71,-479.68 -932.82,-201.02 -24.13,-139.92 -54.34,-246.88 -159.36,-334.01 -147.48,-122.38 -258.73,-51.31 -427.43,-55.05 -29.66,-50.66 -32.09,-508.04 -309.73,-446.21 -108.08,24.07 -69.28,65.19 -152.49,100.1 -9.4,-221.93 -5.27,-477.66 -63.22,-689.71 -33.4,-122.2 -135.73,-434.85 -232.66,-516.08 -40.48,84.63 -80,123.45 -136.59,226.2 -109.34,198.51 -163.92,683.61 -156.77,906.39 -238.21,-195.97 -507.35,-22.52 -410.04,315.52 -30.65,-62.94 -318.49,-293.81 -541.21,-289.95 -356.6,6.17 -350.31,447.32 -362.09,483.2 -95.08,-13.85 -150.51,-55.24 -235.26,-58.34 -40.55,-1.49 -80.82,3.77 -119.97,15.09 -243.87,70.48 -227.44,288.93 -283.9,378.73z"/>
   <path class="fil0" d="M6546 8402.53c-68.45,399.79 30.65,1680.6 7.65,2211.63 75.9,20.11 1099.9,21.48 1191.95,4.38 28.43,-167.69 25.14,-2131.21 -6.91,-2212.21l-1192.69 -3.8z"/>
   <path class="fil0" d="M6752.58 13999.7c53.46,168.6 -7.95,338 -15.64,511.57l801.32 -7.85c4.43,-222.25 -99.46,-1143.99 -55.65,-1267.38 48.8,-327.04 -180.4,-1721.63 -322.68,-2098.89 -23,-60.99 -3.43,-19.02 -20.67,-41.8 -84.92,124.76 -263.94,1133.36 -291.55,1368.88 -20.26,172.85 -111.13,1440.16 -95.13,1535.47z"/>
   <path class="fil0" d="M6393.85 10939.66c-273.21,254.62 -594.57,3044.43 -670.21,3595.33l808.75 -3.29c32.24,-219.42 -29.58,-1477.03 -28.71,-1821.75 1.47,-578.75 -87.92,-1177.4 -109.83,-1770.29z"/>
   <path class="fil0" d="M7906.13 10955.68c-27.1,589.31 -93.85,1160.58 -123.85,1754.84 -15.44,305.91 -8.52,624.25 -13.39,932.27 -4.08,257.56 -37.32,649.43 -5.71,893.59l803.04 3.37c-3.03,-205.8 -215.27,-1544.82 -261.02,-1862.75 -35.76,-248.44 -222.22,-1485.3 -399.07,-1721.32z"/>
   <path class="fil0" d="M6521.95 8234.02l1243.8 3.21c-38.87,-744.05 -236.61,-1334.94 -558.25,-1794.8 -140.69,-4.67 -144.26,10.32 -202.33,105.86 -292.52,481.27 -471.27,1110.28 -483.22,1685.73z"/>
   <path class="fil0" d="M6667.45 13573.31c11.8,-490.02 42.52,-986.19 117.59,-1454.1 48.59,-302.93 228.93,-1010.53 354.22,-1202.79 142.95,231.34 311.71,943.39 367.07,1273.54 81.77,487.66 93.71,1021.9 133.14,1515.65 44.24,-472.14 6.26,-983.04 51.12,-1468.41 44.13,-477.6 88.59,-968.23 92.5,-1451.69l-1270.11 1.38c12.88,464.45 27.91,924.79 78.71,1378.6 26.56,237.28 41.54,1319.86 75.76,1407.82z"/>
   <path class="fil0" d="M5993.35 15271.16c192.07,2.12 356.46,8.75 528.63,-53.75l2.36 -551.27 -833.79 2.76 -300.44 622.69c99.87,-4.28 199.98,-3.65 300.54,-8.85 205,-10.6 244.59,-36.28 224.82,68.97 -41.78,73 66.78,-20.78 -41.2,26.57 -28.79,12.63 -42.03,10.16 -54.7,16.27 -65.72,31.74 -47.16,-70.34 -56.81,84.99 84.33,54.62 185.17,0.26 377.81,43.95l-1.2 -107.87c-46.37,-27.87 -102.05,-16.68 -147.24,-42.61l1.22 -101.85z"/>
   <path class="fil0" d="M7927.63 15265.85c5.44,-6.41 15.21,-21.11 20.33,-14.96 4.9,5.9 13.47,-10.57 20.34,-13.09 121.45,-44.71 299.11,4.27 400.42,24.81 136.78,46.72 376.86,31.43 537.25,23.72l-296.7 -619.54 -854.44 -0.43c-2.22,166.68 -32.87,411.02 12.4,549.78 55.89,25.96 119.41,28.32 160.4,49.71z"/>
   <path class="fil1" d="M9548.52 17521.26c91.93,42.26 115.74,22.65 203.04,76.63 343.99,212.7 115.78,531.35 113.07,623.51 60.87,-17.44 147.55,-52.6 208.65,-84.51 178.88,-93.41 283.37,-406.74 165.29,-599.18 -117.92,-192.19 -368.75,-310.77 -602.5,-202.22 -82.14,38.14 -115.63,59.72 -120.36,167.97l32.81 17.8z"/>
   <path class="fil0" d="M7196.63 15178.54l35.69 0.16c-28.93,-92.13 191.24,3.68 311.83,-55.84l-1.11 -410.38 -796.12 0.01 -18.67 416.74c130.92,5.81 345.69,9.94 468.38,49.31z"/>
   <path class="fil2" d="M11709.12 14003.97l-155.68 20.27c7.88,-49.91 6.1,-37.77 13.99,-79.46l10.73 -48.53 -146.71 102.79c-40.03,36.14 -67.8,64.06 -110.66,100.09 -73.81,62.02 -168.92,141.48 -237.25,204.88l11.36 -237.45c-7.77,-2.5 -13.89,-16.04 -17.2,-17.43 -2.58,-1.08 -16.56,9.53 -18.94,2.29 -17.31,-52.66 -26.07,252.36 -26.95,277.56l99.41 33.34c1.1,0.58 6.37,7.21 7.1,4.78 0.65,-2.2 3.73,3.68 6.08,4.71l3.07 42.99c-0.78,5.87 -0.28,12.95 -1.83,18.97 -16.11,62.62 -98.34,71.08 -78.6,123.68 29.29,57.98 -60.68,28.98 95.35,49.69l919.41 -1.2c-1.93,-155.98 -0.01,-312.42 0,-468.59l0.93 -321.24c-24.2,-114.43 16.82,-59.2 -53.8,-88.88l5.4 821.44 -926.29 -0.78c89.33,-98.81 204.56,-180.3 305.6,-269.56 58.34,-51.53 97.68,-83.28 149.07,-128.47 62.78,-55.21 106.01,-78.11 146.41,-145.89z"/>
   <path class="fil3" d="M7738.69 8406.33c32.05,81 35.34,2044.52 6.91,2212.21 -92.05,17.1 -1116.05,15.73 -1191.95,-4.38 23,-531.03 -76.1,-1811.84 -7.65,-2211.63l1192.69 3.8zm-1220.31 2254.57l1251.64 -3.96 10.47 -2296.42 -1267.09 0.48 4.98 2299.9z"/>
   <path class="fil4" d="M7080.07 15329.46c7.84,-1.33 75.88,-1.87 79.42,-2.41 52.2,-7.85 30.75,-3.94 51.33,-14.94l-14.19 -133.57c-122.69,-39.37 -337.46,-43.5 -468.38,-49.31l18.67 -416.74 796.12 -0.01 1.11 410.38c-120.59,59.52 -340.76,-36.29 -311.83,55.84l360.81 -11.44 -9.5 -500.43 -870.04 -0.19 -27.83 506.27 411.02 7.72 -16.71 148.83z"/>
   <path class="fil3" d="M6752.58 13999.7c-39.93,97.73 -46.12,410.36 -32.64,535.24l843.79 5.67c10.09,-159.49 -43.67,-1218.92 -81.12,-1304.57 -43.81,123.39 60.08,1045.13 55.65,1267.38l-801.32 7.85c7.69,-173.57 69.1,-342.97 15.64,-511.57z"/>
   <path class="fil0" d="M7080.07 15329.46c-58.45,-20.31 -165.06,-4.27 -243.06,-2.7l0.31 175.23c106.28,-33.98 242.64,-49.99 378.68,-43.74 5.34,-2.29 12.78,-12.25 15.89,-7.15l197.45 -35.48c-28.36,-124.99 -58.95,-41.72 -206.87,-73.27l39.2 -19.38 -50.85 -10.86c-20.58,11 0.87,7.09 -51.33,14.94 -3.54,0.54 -71.58,1.08 -79.42,2.41z"/>
   <path class="fil5" d="M8368.72 15262.61c-101.31,-20.54 -278.97,-69.52 -400.42,-24.81 -6.87,2.52 -15.44,18.99 -20.34,13.09 -5.12,-6.15 -14.89,8.55 -20.33,14.96l351.92 11.04 -0.67 107.77 -140.55 30.86 -3.5 110.37c158.87,-14.97 215.72,-37.85 381.12,0.86l-1.07 -111.13 -151.91 -25.33 5.75 -127.68z"/>
   <path class="fil6" d="M7216 15458.25l242.4 37.9 3.59 -168.77 -200.32 -4.41 -39.2 19.38c147.92,31.55 178.51,-51.72 206.87,73.27l-197.45 35.48c-3.11,-5.1 -10.55,4.86 -15.89,7.15z"/>
   <polygon class="fil7" points="5106.08,3727.54 5382.3,3727.54 5382.3,3494.14 5516.26,3364.32 5791.09,3727.54 6100.45,3727.54 5695.8,3193.07 6086.64,2816.04 5748.28,2816.04 5382.3,3168.21 5382.3,2816.04 5106.08,2816.04 "/>
   <polygon id="_1" class="fil7" points="6141.88,3727.54 6413.95,3727.54 6657.02,2981.77 6873.84,2981.77 6873.84,3727.54 7150.05,3727.54 7150.05,2816.04 6438.81,2816.04 "/>
   <polygon id="_2" class="fil7" points="7253.64,2816.04 7641.71,3467.9 7495.32,3727.54 7785.34,3727.54 8303.24,2816.04 8013.22,2816.04 7785.34,3215.17 7547.8,2816.04 "/>
   <path id="_3" class="fil7" d="M8406.82 3727.54l676.72 0c156.06,0 234.78,-62.15 234.78,-187.82l0 -183.69c0,-125.67 -78.72,-187.82 -234.78,-187.82l-400.5 0 0 -186.44 566.23 0 0 -165.73 -842.45 0 0 911.5zm276.22 -165.73l0 -227.87 310.73 0c31.77,0 48.34,12.43 48.34,38.67l0 150.53c0,26.24 -16.57,38.67 -48.34,38.67l-310.73 0z"/>
   <polygon id="_4" class="fil7" points="3179.5,5384.82 3455.72,5384.82 3455.72,4904.21 3669.78,5384.82 3932.18,5384.82 4146.25,4904.21 4146.25,5384.82 4422.46,5384.82 4422.46,4473.32 4084.1,4473.32 3800.98,5109.99 3517.86,4473.32 3179.5,4473.32 "/>
   <polygon id="_5" class="fil7" points="4615.8,5384.82 5499.68,5384.82 5499.68,5219.09 4892.02,5219.09 4892.02,4991.22 5430.63,4991.22 5430.63,4825.49 4892.02,4825.49 4892.02,4639.05 5499.68,4639.05 5499.68,4473.32 4615.8,4473.32 "/>
   <path id="_6" class="fil7" d="M5596.36 5219.09l0 414.32 234.78 0 0 -248.59 759.58 0 0 248.59 234.78 0 0 -414.32 -151.91 0 0 -745.77 -683.63 0 -243.06 745.77 -150.54 0zm422.61 0l189.2 -580.04 189.21 0 0 580.04 -378.41 0z"/>
   <path id="_7" class="fil7" d="M6949.8 5197c0,125.67 78.72,187.82 234.78,187.82l483.38 0c156.06,0 234.78,-62.15 234.78,-187.82l0 -535.86c0,-125.67 -78.72,-187.82 -234.78,-187.82l-483.38 0c-156.06,0 -234.78,62.15 -234.78,187.82l0 535.86zm276.22 -16.58l0 -502.7c0,-26.24 16.57,-38.67 48.33,-38.67l303.84 0c31.76,0 48.33,12.43 48.33,38.67l0 502.7c0,26.24 -16.57,38.67 -48.33,38.67l-303.84 0c-31.76,0 -48.33,-12.43 -48.33,-38.67z"/>
   <path id="_8" class="fil7" d="M7978.69 4362.84l193.35 0 0 -165.73 -193.35 0 0 165.73zm117.39 1021.98l276.22 0 0 -911.5 -276.22 0 0 911.5zm200.26 -1021.98l193.35 0 0 -165.73 -193.35 0 0 165.73z"/>
   <path id="_9" class="fil7" d="M8496.59 5219.09l0 414.32 234.78 0 0 -248.59 759.58 0 0 248.59 234.78 0 0 -414.32 -151.91 0 0 -745.77 -683.63 0 -243.06 745.77 -150.54 0zm422.61 0l189.2 -580.04 189.21 0 0 580.04 -378.41 0z"/>
   <polygon id="_10" class="fil7" points="9850.03,5384.82 10126.25,5384.82 10126.25,4473.32 9850.03,4473.32 "/>
   <path id="_11" class="fil7" d="M10319.59 5384.82l690.53 0c156.06,0 234.78,-62.15 234.78,-187.82l0 -128.44c0,-82.87 -34.52,-139.49 -103.58,-167.11 59.39,-29 89.77,-82.86 89.77,-160.2l0 -80.11c0,-125.67 -78.72,-187.82 -234.78,-187.82l-676.72 0 0 911.5zm276.22 -165.73l0 -227.87 324.55 0c31.76,0 48.33,12.43 48.33,38.67l0 150.53c0,26.24 -16.57,38.67 -48.33,38.67l-324.55 0zm0 -393.6l0 -186.44 310.73 0c31.77,0 48.34,12.43 48.34,38.67l0 109.1c0,26.24 -16.57,38.67 -48.34,38.67l-310.73 0z"/>
  </g>
 </g>
</svg>
