<?xml version="1.0" encoding="UTF-8"?>
<!DOCTYPE svg PUBLIC "-//W3C//DTD SVG 1.1//EN" "http://www.w3.org/Graphics/SVG/1.1/DTD/svg11.dtd">
<!-- Creator: CorelDRAW -->
<svg xmlns="http://www.w3.org/2000/svg" xml:space="preserve" width="60mm" height="60mm" version="1.1" style="shape-rendering:geometricPrecision; text-rendering:geometricPrecision; image-rendering:optimizeQuality; fill-rule:evenodd; clip-rule:evenodd"
viewBox="0 0 6000 6000"
 xmlns:xlink="http://www.w3.org/1999/xlink"
 xmlns:xodm="http://www.corel.com/coreldraw/odm/2003">
 <defs>
  <style type="text/css">
   <![CDATA[
    .str0 {stroke:black;stroke-width:120;stroke-miterlimit:22.9256}
    .fil0 {fill:white}
   ]]>
  </style>
 </defs>
 <g id="Слой_x0020_1">
  <metadata id="CorelCorpID_0Corel-Layer"/>
  <path class="fil0 str0" d="M2928.66 1524.63l-156.69 9.92c-34.6,3.87 -96.84,13.85 -147.53,23.98 -105.06,21.01 -197.77,46.89 -286.42,82.45 -88.95,35.69 -161.79,70.69 -242.46,126.41 -310.74,214.63 -449.52,576.4 -482.87,961.59l-0.38 505.45c12.43,132.37 9.34,158.11 28.76,301.55 30.05,221.94 95.01,480.13 223.82,658.53 84.46,116.96 176.11,188.74 324.01,213.16 247.35,40.85 423.27,-128.28 525.96,-330.32l178.49 -374.82c28.26,-63.69 84.55,-144.09 130.98,-199.46l65.56 -65.08c40.8,-37.6 121.98,-83.47 170.43,-106.22 225.83,-106.01 506.95,-93.24 743.43,-340.13 65.5,-68.39 126.28,-146.49 164.42,-235.2 63.49,-147.72 87.24,-277.65 73.15,-445.72 -3.06,-36.39 -11.4,-76.82 -26.48,-127.98 -98.32,-333.74 -413.59,-544.1 -742.83,-616.23 -22.63,-4.96 -34.55,-7 -57.74,-11.75 -63.19,-12.93 -398.43,-47.82 -482.02,-31.13 -0.54,0.11 -2.37,0.82 -3.6,0.99z"/>
 </g>
</svg>
